<svg width="147" height="17" viewBox="0 0 147 17" fill="none" xmlns="http://www.w3.org/2000/svg">
<path d="M8.39702 6.5C8.30421 6.16193 8.16832 5.84541 7.98935 5.55043C7.81037 5.25213 7.58831 4.99195 7.32315 4.76989C7.06132 4.54451 6.75805 4.36884 6.41335 4.2429C6.07197 4.11695 5.69081 4.05398 5.26989 4.05398C4.60701 4.05398 4.01373 4.22633 3.49006 4.57102C2.96638 4.91572 2.55208 5.41288 2.24716 6.0625C1.94555 6.71212 1.79474 7.49432 1.79474 8.40909C1.79474 9.32055 1.94721 10.1011 2.25213 10.7507C2.55706 11.4003 2.97467 11.8991 3.50497 12.2472C4.03859 12.5919 4.64844 12.7642 5.33452 12.7642C5.96094 12.7642 6.51444 12.625 6.99503 12.3466C7.47562 12.0682 7.85014 11.6705 8.11861 11.1534C8.39039 10.6364 8.52296 10.0215 8.51634 9.30895L8.81463 9.40341H5.55327V8.56818H9.42117V9.40341C9.42117 10.2718 9.2455 11.0225 8.89418 11.6555C8.54285 12.2886 8.06061 12.7775 7.44744 13.1222C6.83428 13.4669 6.12997 13.6392 5.33452 13.6392C4.44626 13.6392 3.66903 13.4254 3.00284 12.9979C2.33665 12.567 1.81795 11.9605 1.44673 11.1783C1.07884 10.3928 0.894886 9.4697 0.894886 8.40909C0.894886 7.61032 1.00095 6.88944 1.21307 6.24645C1.42519 5.60346 1.72514 5.05327 2.11293 4.59588C2.50402 4.13849 2.96638 3.78883 3.5 3.54688C4.03362 3.30161 4.62358 3.17898 5.26989 3.17898C5.8267 3.17898 6.33546 3.26681 6.79616 3.44247C7.26018 3.61813 7.66785 3.86009 8.01918 4.16832C8.37382 4.47325 8.66383 4.82623 8.8892 5.22727C9.1179 5.625 9.27202 6.04924 9.35156 6.5H8.39702ZM14.3526 13.6591C13.64 13.6591 13.0236 13.4934 12.5032 13.1619C11.9828 12.8272 11.5801 12.3648 11.2951 11.7749C11.0134 11.1816 10.8725 10.4988 10.8725 9.72656C10.8725 8.95762 11.0134 8.27486 11.2951 7.67827C11.5801 7.07836 11.9729 6.60937 12.4734 6.27131C12.9772 5.92992 13.5588 5.75923 14.2184 5.75923C14.6327 5.75923 15.0321 5.83546 15.4166 5.98793C15.801 6.13707 16.1457 6.36742 16.4506 6.67898C16.7589 6.98722 17.0025 7.37666 17.1815 7.8473C17.3604 8.31463 17.4499 8.86813 17.4499 9.50781V9.94531H11.484V9.16477H16.5451C16.5451 8.67424 16.4457 8.23343 16.2468 7.84233C16.0513 7.44792 15.7778 7.13636 15.4265 6.90767C15.0785 6.67898 14.6758 6.56463 14.2184 6.56463C13.7345 6.56463 13.3086 6.69389 12.9407 6.95241C12.5728 7.21094 12.2845 7.55232 12.0756 7.97656C11.8702 8.4008 11.7658 8.86482 11.7624 9.36861V9.83594C11.7624 10.4425 11.8668 10.9728 12.0756 11.4268C12.2878 11.8776 12.5877 12.2273 12.9755 12.4759C13.3633 12.7244 13.8223 12.8487 14.3526 12.8487C14.7139 12.8487 15.0304 12.7924 15.3022 12.6797C15.5773 12.567 15.8077 12.4162 15.9933 12.2273C16.1822 12.035 16.3247 11.8246 16.4208 11.5959L17.261 11.8693C17.145 12.1908 16.9544 12.4875 16.6893 12.7592C16.4274 13.031 16.0993 13.2498 15.7049 13.4155C15.3138 13.5779 14.8631 13.6591 14.3526 13.6591ZM22.1279 5.86364V6.63423H18.4837V5.86364H22.1279ZM19.6222 4.03409H20.5121V11.5064C20.5121 11.8246 20.5668 12.0748 20.6762 12.2571C20.7855 12.4361 20.928 12.5637 21.1037 12.6399C21.2794 12.7128 21.4666 12.7493 21.6655 12.7493C21.7815 12.7493 21.8809 12.7427 21.9638 12.7294C22.0467 12.7128 22.1196 12.6963 22.1825 12.6797L22.3715 13.4801C22.2853 13.5133 22.1792 13.5431 22.0533 13.5696C21.9273 13.5994 21.7716 13.6143 21.586 13.6143C21.2611 13.6143 20.9479 13.5431 20.6463 13.4006C20.348 13.258 20.1028 13.0459 19.9105 12.7642C19.7183 12.4825 19.6222 12.1328 19.6222 11.7152V4.03409Z" fill="#EAEAEB"/>
<circle cx="35" cy="8.5" r="8" fill="url(#paint0_linear_1769_12501)"/>
<path d="M32.0741 3.25443H31.6204V5.25072H32.0741V3.25443Z" fill="url(#paint1_linear_1769_12501)"/>
<path d="M35.0005 5.33012C34.5128 5.33012 34.1158 4.84239 34.1158 4.24123C34.1158 3.64007 34.5128 3.15234 35.0005 3.15234C35.4882 3.15234 35.8852 3.64007 35.8852 4.24123C35.8852 4.84239 35.4882 5.33012 35.0005 5.33012ZM35.0005 3.61739C34.7736 3.61739 34.5695 3.90095 34.5695 4.25257C34.5695 4.60419 34.7623 4.88776 35.0005 4.88776C35.2387 4.88776 35.4315 4.60419 35.4315 4.25257C35.4315 3.90095 35.2387 3.61739 35.0005 3.61739Z" fill="url(#paint2_linear_1769_12501)"/>
<path d="M38.3692 3.25443H37.9155V5.25072H38.3692V3.25443Z" fill="url(#paint3_linear_1769_12501)"/>
<path d="M28.9322 7.50789H28.4785V9.50418H28.9322V7.50789Z" fill="url(#paint4_linear_1769_12501)"/>
<path d="M31.8473 9.59492C31.3595 9.59492 30.9625 9.10719 30.9625 8.50603C30.9625 7.90488 31.3595 7.41715 31.8473 7.41715C32.335 7.41715 32.732 7.90488 32.732 8.50603C32.732 9.10719 32.335 9.59492 31.8473 9.59492ZM31.8473 7.88219C31.6204 7.88219 31.4162 8.16576 31.4162 8.51738C31.4162 8.86899 31.6091 9.15256 31.8473 9.15256C32.0855 9.15256 32.2783 8.86899 32.2783 8.51738C32.2783 8.16576 32.0855 7.88219 31.8473 7.88219Z" fill="url(#paint5_linear_1769_12501)"/>
<path d="M35.2273 7.50789H34.7736V9.50418H35.2273V7.50789Z" fill="url(#paint6_linear_1769_12501)"/>
<path d="M38.1424 9.59492C37.6546 9.59492 37.2577 9.10719 37.2577 8.50603C37.2577 7.90488 37.6546 7.41715 38.1424 7.41715C38.6301 7.41715 39.0271 7.90488 39.0271 8.50603C39.0271 9.10719 38.6301 9.59492 38.1424 9.59492ZM38.1424 7.88219C37.9155 7.88219 37.7114 8.16576 37.7114 8.51738C37.7114 8.86899 37.9042 9.15256 38.1424 9.15256C38.3806 9.15256 38.5734 8.86899 38.5734 8.51738C38.5734 8.16576 38.3806 7.88219 38.1424 7.88219Z" fill="url(#paint7_linear_1769_12501)"/>
<path d="M41.5225 7.50789H41.0688V9.50418H41.5225V7.50789Z" fill="url(#paint8_linear_1769_12501)"/>
<path d="M32.0741 11.7727H31.6204V13.769H32.0741V11.7727Z" fill="url(#paint9_linear_1769_12501)"/>
<path d="M35.0005 13.8484C34.5128 13.8484 34.1158 13.3606 34.1158 12.7595C34.1158 12.1583 34.5128 11.6706 35.0005 11.6706C35.4882 11.6706 35.8852 12.1583 35.8852 12.7595C35.8852 13.3606 35.4882 13.8484 35.0005 13.8484ZM35.0005 12.1357C34.7736 12.1357 34.5695 12.4192 34.5695 12.7708C34.5695 13.1225 34.7623 13.406 35.0005 13.406C35.2387 13.406 35.4315 13.1225 35.4315 12.7708C35.4315 12.4192 35.2387 12.1357 35.0005 12.1357Z" fill="url(#paint10_linear_1769_12501)"/>
<path d="M38.3692 11.7727H37.9155V13.769H38.3692V11.7727Z" fill="url(#paint11_linear_1769_12501)"/>
<path d="M51.2756 3.31818V13.5H50.3459V4.29261H50.2862L47.8999 5.87855V4.91406L50.3061 3.31818H51.2756ZM57.0659 13.6392C56.4991 13.6392 55.992 13.5249 55.5446 13.2962C55.1004 13.0642 54.7458 12.746 54.4807 12.3416C54.2188 11.9373 54.0796 11.4749 54.063 10.9545H54.9629C54.9927 11.4948 55.2048 11.9389 55.5993 12.2869C55.9937 12.6316 56.4825 12.804 57.0659 12.804C57.52 12.804 57.9243 12.6963 58.2789 12.4808C58.6336 12.2621 58.9103 11.9638 59.1092 11.5859C59.3114 11.2048 59.4125 10.7756 59.4125 10.2983C59.4092 9.80114 59.3014 9.36364 59.0893 8.9858C58.8772 8.60464 58.5888 8.30634 58.2243 8.09091C57.863 7.87547 57.457 7.76776 57.0062 7.76776C56.6648 7.76444 56.3301 7.82079 56.002 7.93679C55.6738 8.05279 55.4004 8.20194 55.1816 8.38423L54.252 8.26491L54.8635 3.31818H59.8947V4.15341H55.644L55.2363 7.55895H55.2861C55.5114 7.37003 55.7849 7.21591 56.1064 7.09659C56.4312 6.97727 56.7742 6.91761 57.1355 6.91761C57.7354 6.91761 58.274 7.06179 58.7512 7.35014C59.2318 7.63849 59.6113 8.03622 59.8897 8.54332C60.1715 9.04711 60.3123 9.62713 60.3123 10.2834C60.3123 10.9264 60.1715 11.5014 59.8897 12.0085C59.6113 12.5123 59.2269 12.91 58.7363 13.2017C58.2491 13.4934 57.6923 13.6392 57.0659 13.6392ZM65.3097 13.6392C64.5938 13.6392 63.9823 13.4337 63.4752 13.0227C62.9714 12.6084 62.5836 12.0102 62.3118 11.228C62.0433 10.4458 61.9091 9.50616 61.9091 8.40909C61.9091 7.31534 62.0433 6.37902 62.3118 5.60014C62.5836 4.81794 62.973 4.2197 63.4801 3.8054C63.9905 3.38778 64.6004 3.17898 65.3097 3.17898C66.019 3.17898 66.6271 3.38778 67.1342 3.8054C67.6447 4.2197 68.0341 4.81794 68.3026 5.60014C68.5744 6.37902 68.7102 7.31534 68.7102 8.40909C68.7102 9.50616 68.5744 10.4458 68.3026 11.228C68.0341 12.0102 67.6463 12.6084 67.1392 13.0227C66.6354 13.4337 66.0256 13.6392 65.3097 13.6392ZM65.3097 12.804C66.0952 12.804 66.7083 12.4212 67.1492 11.6555C67.59 10.8866 67.8104 9.80445 67.8104 8.40909C67.8104 7.48106 67.7093 6.68892 67.5071 6.03267C67.3083 5.37311 67.0216 4.86932 66.647 4.52131C66.2758 4.1733 65.83 3.99929 65.3097 3.99929C64.5308 3.99929 63.9193 4.38707 63.4752 5.16264C63.031 5.9349 62.809 7.01705 62.809 8.40909C62.809 9.33712 62.9084 10.1293 63.1073 10.7855C63.3094 11.4418 63.5961 11.9422 63.9673 12.2869C64.3419 12.6316 64.7893 12.804 65.3097 12.804ZM74.3299 13.5V3.31818H80.2213V4.15341H75.2596V7.98651H79.7589V8.82173H75.2596V13.5H74.3299ZM81.9871 13.5V5.86364H82.8472V7.03693H82.9118C83.0643 6.65246 83.3294 6.34257 83.7072 6.10724C84.0884 5.86861 84.5193 5.74929 84.9999 5.74929C85.0728 5.74929 85.154 5.75095 85.2435 5.75426C85.333 5.75758 85.4075 5.76089 85.4672 5.7642V6.66406C85.4274 6.65743 85.3578 6.64749 85.2584 6.63423C85.1589 6.62098 85.0512 6.61435 84.9352 6.61435C84.5375 6.61435 84.1829 6.69886 83.8713 6.8679C83.5631 7.03362 83.3195 7.26397 83.1405 7.55895C82.9615 7.85393 82.872 8.19034 82.872 8.56818V13.5H81.9871ZM89.5522 13.6591C88.8396 13.6591 88.2232 13.4934 87.7028 13.1619C87.1825 12.8272 86.7798 12.3648 86.4947 11.7749C86.213 11.1816 86.0721 10.4988 86.0721 9.72656C86.0721 8.95762 86.213 8.27486 86.4947 7.67827C86.7798 7.07836 87.1725 6.60937 87.673 6.27131C88.1768 5.92992 88.7584 5.75923 89.418 5.75923C89.8323 5.75923 90.2317 5.83546 90.6162 5.98793C91.0006 6.13707 91.3453 6.36742 91.6503 6.67898C91.9585 6.98722 92.2021 7.37666 92.3811 7.8473C92.5601 8.31463 92.6495 8.86813 92.6495 9.50781V9.94531H86.6836V9.16477H91.7447C91.7447 8.67424 91.6453 8.23343 91.4464 7.84233C91.2509 7.44792 90.9774 7.13636 90.6261 6.90767C90.2781 6.67898 89.8754 6.56463 89.418 6.56463C88.9341 6.56463 88.5082 6.69389 88.1403 6.95241C87.7724 7.21094 87.4841 7.55232 87.2753 7.97656C87.0698 8.4008 86.9654 8.86482 86.962 9.36861V9.83594C86.962 10.4425 87.0664 10.9728 87.2753 11.4268C87.4874 11.8776 87.7873 12.2273 88.1751 12.4759C88.5629 12.7244 89.0219 12.8487 89.5522 12.8487C89.9135 12.8487 90.23 12.7924 90.5018 12.6797C90.7769 12.567 91.0073 12.4162 91.1929 12.2273C91.3818 12.035 91.5243 11.8246 91.6204 11.5959L92.4606 11.8693C92.3446 12.1908 92.154 12.4875 91.8889 12.7592C91.6271 13.031 91.2989 13.2498 90.9045 13.4155C90.5134 13.5779 90.0627 13.6591 89.5522 13.6591ZM97.407 13.6591C96.6944 13.6591 96.0779 13.4934 95.5576 13.1619C95.0372 12.8272 94.6345 12.3648 94.3495 11.7749C94.0678 11.1816 93.9269 10.4988 93.9269 9.72656C93.9269 8.95762 94.0678 8.27486 94.3495 7.67827C94.6345 7.07836 95.0273 6.60937 95.5277 6.27131C96.0315 5.92992 96.6132 5.75923 97.2728 5.75923C97.6871 5.75923 98.0865 5.83546 98.4709 5.98793C98.8554 6.13707 99.2001 6.36742 99.505 6.67898C99.8133 6.98722 100.057 7.37666 100.236 7.8473C100.415 8.31463 100.504 8.86813 100.504 9.50781V9.94531H94.5384V9.16477H99.5995C99.5995 8.67424 99.5001 8.23343 99.3012 7.84233C99.1056 7.44792 98.8322 7.13636 98.4809 6.90767C98.1329 6.67898 97.7302 6.56463 97.2728 6.56463C96.7889 6.56463 96.363 6.69389 95.9951 6.95241C95.6272 7.21094 95.3388 7.55232 95.13 7.97656C94.9245 8.4008 94.8201 8.86482 94.8168 9.36861V9.83594C94.8168 10.4425 94.9212 10.9728 95.13 11.4268C95.3421 11.8776 95.6421 12.2273 96.0299 12.4759C96.4177 12.7244 96.8767 12.8487 97.407 12.8487C97.7683 12.8487 98.0848 12.7924 98.3566 12.6797C98.6317 12.567 98.862 12.4162 99.0476 12.2273C99.2366 12.035 99.3791 11.8246 99.4752 11.5959L100.315 11.8693C100.199 12.1908 100.009 12.4875 99.7437 12.7592C99.4818 13.031 99.1537 13.2498 98.7593 13.4155C98.3682 13.5779 97.9174 13.6591 97.407 13.6591ZM108.84 5.86364V6.63423H105.196V5.86364H108.84ZM106.334 4.03409H107.224V11.5064C107.224 11.8246 107.279 12.0748 107.388 12.2571C107.497 12.4361 107.64 12.5637 107.816 12.6399C107.991 12.7128 108.179 12.7493 108.377 12.7493C108.493 12.7493 108.593 12.7427 108.676 12.7294C108.759 12.7128 108.831 12.6963 108.894 12.6797L109.083 13.4801C108.997 13.5133 108.891 13.5431 108.765 13.5696C108.639 13.5994 108.483 13.6143 108.298 13.6143C107.973 13.6143 107.66 13.5431 107.358 13.4006C107.06 13.258 106.815 13.0459 106.622 12.7642C106.43 12.4825 106.334 12.1328 106.334 11.7152V4.03409ZM113.456 13.6591C112.796 13.6591 112.213 13.4917 111.706 13.157C111.202 12.8222 110.807 12.3598 110.522 11.7699C110.237 11.1766 110.095 10.4922 110.095 9.71662C110.095 8.93442 110.237 8.24669 110.522 7.65341C110.807 7.05682 111.202 6.5928 111.706 6.26136C112.213 5.92661 112.796 5.75923 113.456 5.75923C114.115 5.75923 114.697 5.92661 115.201 6.26136C115.704 6.59612 116.099 7.06013 116.384 7.65341C116.672 8.24669 116.816 8.93442 116.816 9.71662C116.816 10.4922 116.674 11.1766 116.389 11.7699C116.104 12.3598 115.708 12.8222 115.201 13.157C114.697 13.4917 114.115 13.6591 113.456 13.6591ZM113.456 12.8487C113.986 12.8487 114.435 12.7062 114.803 12.4212C115.171 12.1361 115.449 11.7566 115.638 11.2827C115.83 10.8087 115.926 10.2867 115.926 9.71662C115.926 9.14654 115.83 8.62287 115.638 8.1456C115.449 7.66832 115.171 7.28551 114.803 6.99716C114.435 6.70881 113.986 6.56463 113.456 6.56463C112.929 6.56463 112.479 6.70881 112.108 6.99716C111.74 7.28551 111.46 7.66832 111.268 8.1456C111.079 8.62287 110.985 9.14654 110.985 9.71662C110.985 10.2867 111.079 10.8087 111.268 11.2827C111.46 11.7566 111.74 12.1361 112.108 12.4212C112.476 12.7062 112.925 12.8487 113.456 12.8487ZM119.284 10.6165L119.274 9.4581H119.473L123.053 5.86364H124.171L120.637 9.40341L120.557 9.41832L119.284 10.6165ZM118.479 13.5V3.31818H119.364V13.5H118.479ZM123.237 13.5L120.134 9.57741L120.771 8.96591L124.37 13.5H123.237ZM128.327 13.6591C127.615 13.6591 126.998 13.4934 126.478 13.1619C125.958 12.8272 125.555 12.3648 125.27 11.7749C124.988 11.1816 124.847 10.4988 124.847 9.72656C124.847 8.95762 124.988 8.27486 125.27 7.67827C125.555 7.07836 125.948 6.60937 126.448 6.27131C126.952 5.92992 127.534 5.75923 128.193 5.75923C128.607 5.75923 129.007 5.83546 129.391 5.98793C129.776 6.13707 130.12 6.36742 130.425 6.67898C130.734 6.98722 130.977 7.37666 131.156 7.8473C131.335 8.31463 131.425 8.86813 131.425 9.50781V9.94531H125.459V9.16477H130.52C130.52 8.67424 130.42 8.23343 130.221 7.84233C130.026 7.44792 129.753 7.13636 129.401 6.90767C129.053 6.67898 128.65 6.56463 128.193 6.56463C127.709 6.56463 127.283 6.69389 126.915 6.95241C126.547 7.21094 126.259 7.55232 126.05 7.97656C125.845 8.4008 125.74 8.86482 125.737 9.36861V9.83594C125.737 10.4425 125.842 10.9728 126.05 11.4268C126.262 11.8776 126.562 12.2273 126.95 12.4759C127.338 12.7244 127.797 12.8487 128.327 12.8487C128.689 12.8487 129.005 12.7924 129.277 12.6797C129.552 12.567 129.782 12.4162 129.968 12.2273C130.157 12.035 130.299 11.8246 130.396 11.5959L131.236 11.8693C131.12 12.1908 130.929 12.4875 130.664 12.7592C130.402 13.031 130.074 13.2498 129.68 13.4155C129.288 13.5779 128.838 13.6591 128.327 13.6591ZM133.98 8.72727V13.5H133.095V5.86364H133.955V7.06179H134.034C134.213 6.67069 134.492 6.35748 134.87 6.12216C135.251 5.88352 135.721 5.7642 136.282 5.7642C136.795 5.7642 137.246 5.87192 137.634 6.08736C138.025 6.29948 138.328 6.61269 138.544 7.02699C138.762 7.44129 138.872 7.95005 138.872 8.55327V13.5H137.987V8.60795C137.987 7.98153 137.811 7.48603 137.46 7.12145C137.112 6.75687 136.644 6.57457 136.058 6.57457C135.657 6.57457 135.3 6.66075 134.989 6.8331C134.677 7.00544 134.43 7.25402 134.248 7.57884C134.069 7.90033 133.98 8.28314 133.98 8.72727ZM146.053 7.53906L145.242 7.76776C145.163 7.53906 145.05 7.33191 144.904 7.14631C144.759 6.9607 144.568 6.81321 144.333 6.70384C144.101 6.59446 143.812 6.53977 143.468 6.53977C142.951 6.53977 142.526 6.66241 142.195 6.90767C141.863 7.15294 141.698 7.46946 141.698 7.85724C141.698 8.18537 141.81 8.45218 142.036 8.65767C142.264 8.85985 142.616 9.0206 143.09 9.13991L144.243 9.4233C144.883 9.57907 145.362 9.82599 145.68 10.1641C146.001 10.5021 146.162 10.9264 146.162 11.4368C146.162 11.8677 146.043 12.2505 145.804 12.5852C145.566 12.92 145.233 13.1835 144.805 13.3757C144.381 13.5646 143.889 13.6591 143.328 13.6591C142.583 13.6591 141.968 13.4917 141.484 13.157C141 12.8189 140.69 12.3317 140.554 11.6953L141.404 11.4865C141.514 11.9406 141.728 12.2836 142.046 12.5156C142.367 12.7476 142.79 12.8636 143.313 12.8636C143.9 12.8636 144.369 12.7327 144.72 12.4709C145.072 12.2057 145.247 11.8743 145.247 11.4766C145.247 11.1683 145.145 10.9098 144.939 10.701C144.734 10.4889 144.422 10.3331 144.005 10.2337L142.757 9.93537C142.094 9.77628 141.603 9.52438 141.285 9.17969C140.967 8.83499 140.808 8.40743 140.808 7.89702C140.808 7.47609 140.922 7.10653 141.151 6.78835C141.38 6.46686 141.694 6.21496 142.095 6.03267C142.496 5.85038 142.954 5.75923 143.468 5.75923C144.167 5.75923 144.725 5.91832 145.143 6.23651C145.564 6.55137 145.867 6.98556 146.053 7.53906Z" fill="#EAEAEB"/>
<defs>
<linearGradient id="paint0_linear_1769_12501" x1="39.6302" y1="2.11911" x2="30.0211" y2="14.2133" gradientUnits="userSpaceOnUse">
<stop stop-color="#BA9D55"/>
<stop offset="1" stop-color="#9C8038"/>
</linearGradient>
<linearGradient id="paint1_linear_1769_12501" x1="31.0116" y1="15.3034" x2="40.3991" y2="2.80195" gradientUnits="userSpaceOnUse">
<stop stop-color="#A57B14"/>
<stop offset="0.240403" stop-color="#66450B"/>
<stop offset="0.572142" stop-color="#A57B14"/>
<stop offset="1" stop-color="white"/>
</linearGradient>
<linearGradient id="paint2_linear_1769_12501" x1="31.0116" y1="15.3034" x2="40.3991" y2="2.80195" gradientUnits="userSpaceOnUse">
<stop stop-color="#A57B14"/>
<stop offset="0.240403" stop-color="#66450B"/>
<stop offset="0.572142" stop-color="#A57B14"/>
<stop offset="1" stop-color="white"/>
</linearGradient>
<linearGradient id="paint3_linear_1769_12501" x1="31.0116" y1="15.3034" x2="40.3991" y2="2.80195" gradientUnits="userSpaceOnUse">
<stop stop-color="#A57B14"/>
<stop offset="0.240403" stop-color="#66450B"/>
<stop offset="0.572142" stop-color="#A57B14"/>
<stop offset="1" stop-color="white"/>
</linearGradient>
<linearGradient id="paint4_linear_1769_12501" x1="31.0116" y1="15.3034" x2="40.3991" y2="2.80195" gradientUnits="userSpaceOnUse">
<stop stop-color="#A57B14"/>
<stop offset="0.240403" stop-color="#66450B"/>
<stop offset="0.572142" stop-color="#A57B14"/>
<stop offset="1" stop-color="white"/>
</linearGradient>
<linearGradient id="paint5_linear_1769_12501" x1="31.0116" y1="15.3034" x2="40.3991" y2="2.80195" gradientUnits="userSpaceOnUse">
<stop stop-color="#A57B14"/>
<stop offset="0.240403" stop-color="#66450B"/>
<stop offset="0.572142" stop-color="#A57B14"/>
<stop offset="1" stop-color="white"/>
</linearGradient>
<linearGradient id="paint6_linear_1769_12501" x1="31.0116" y1="15.3034" x2="40.3991" y2="2.80195" gradientUnits="userSpaceOnUse">
<stop stop-color="#A57B14"/>
<stop offset="0.240403" stop-color="#66450B"/>
<stop offset="0.572142" stop-color="#A57B14"/>
<stop offset="1" stop-color="white"/>
</linearGradient>
<linearGradient id="paint7_linear_1769_12501" x1="31.0116" y1="15.3034" x2="40.3991" y2="2.80195" gradientUnits="userSpaceOnUse">
<stop stop-color="#A57B14"/>
<stop offset="0.240403" stop-color="#66450B"/>
<stop offset="0.572142" stop-color="#A57B14"/>
<stop offset="1" stop-color="white"/>
</linearGradient>
<linearGradient id="paint8_linear_1769_12501" x1="31.0116" y1="15.3034" x2="40.3991" y2="2.80195" gradientUnits="userSpaceOnUse">
<stop stop-color="#A57B14"/>
<stop offset="0.240403" stop-color="#66450B"/>
<stop offset="0.572142" stop-color="#A57B14"/>
<stop offset="1" stop-color="white"/>
</linearGradient>
<linearGradient id="paint9_linear_1769_12501" x1="31.0116" y1="15.3034" x2="40.3991" y2="2.80195" gradientUnits="userSpaceOnUse">
<stop stop-color="#A57B14"/>
<stop offset="0.240403" stop-color="#66450B"/>
<stop offset="0.572142" stop-color="#A57B14"/>
<stop offset="1" stop-color="white"/>
</linearGradient>
<linearGradient id="paint10_linear_1769_12501" x1="31.0116" y1="15.3034" x2="40.3991" y2="2.80195" gradientUnits="userSpaceOnUse">
<stop stop-color="#A57B14"/>
<stop offset="0.240403" stop-color="#66450B"/>
<stop offset="0.572142" stop-color="#A57B14"/>
<stop offset="1" stop-color="white"/>
</linearGradient>
<linearGradient id="paint11_linear_1769_12501" x1="31.0116" y1="15.3034" x2="40.3991" y2="2.80195" gradientUnits="userSpaceOnUse">
<stop stop-color="#A57B14"/>
<stop offset="0.240403" stop-color="#66450B"/>
<stop offset="0.572142" stop-color="#A57B14"/>
<stop offset="1" stop-color="white"/>
</linearGradient>
</defs>
</svg>
