<svg width="111" height="30" viewBox="0 0 111 30" fill="none" xmlns="http://www.w3.org/2000/svg">
<path d="M110.977 1.93359H108.295V28.0483H110.977V1.93359Z" fill="#53C9A9"/>
<path d="M110.977 1.93359H108.295V28.0483H110.977V1.93359Z" fill="#53C9A9"/>
<path d="M110.977 1.93359H108.295V28.0483H110.977V1.93359Z" fill="#53C9A9"/>
<path d="M110.977 1.93359H108.295V28.0483H110.977V1.93359Z" fill="#53C9A9"/>
<path d="M110.977 1.93359H108.295V28.0483H110.977V1.93359Z" fill="#53C9A9"/>
<path d="M110.977 1.93359H108.295V28.0483H110.977V1.93359Z" fill="#53C9A9"/>
<path d="M10.4741 25.8017H6.81008L0.587891 8.71973H3.63856L8.6341 22.4774L13.6296 8.71973H16.6803L10.4741 25.8017Z" fill="white"/>
<path d="M34.1226 13.8576C33.7487 12.6423 33.1741 11.573 32.4012 10.6518C31.6397 9.73071 30.7186 9.01478 29.6401 8.50405C28.5708 7.98193 27.3966 7.71973 26.1106 7.71973C24.941 7.71973 23.8374 7.95229 22.8046 8.41969C21.7695 8.88482 20.862 9.53235 20.0777 10.3623C19.3047 11.1808 18.696 12.1361 18.2537 13.226C17.8113 14.3044 17.5879 15.4695 17.5879 16.7213C17.5879 18.3697 17.9687 19.8745 18.7302 21.238C19.5031 22.59 20.5314 23.6708 21.8151 24.4779C23.1101 25.285 24.542 25.6886 26.1106 25.6886C27.8161 25.6886 29.3551 25.2121 30.73 24.2567C32.1048 23.29 33.1331 22.052 33.8148 20.5403L30.901 19.8586C30.3902 20.7797 29.7199 21.507 28.89 22.0406C28.06 22.5627 27.1344 22.8249 26.1106 22.8249C25.1553 22.8135 24.2866 22.5855 23.5023 22.1432C22.7293 21.7008 22.0932 21.1035 21.5939 20.3533C21.0946 19.5918 20.7754 18.7277 20.6386 17.7632H34.549C34.6516 16.377 34.5102 15.0751 34.1226 13.8598V13.8576ZM20.5542 15.5106C20.6796 14.5324 20.9965 13.6524 21.5095 12.868C22.0317 12.0723 22.6906 11.4407 23.4863 10.9756C24.282 10.5105 25.1576 10.2756 26.1106 10.2756C27.0637 10.2756 27.946 10.515 28.7532 10.9916C29.5603 11.4681 30.2238 12.1042 30.7482 12.8999C31.2703 13.6843 31.5781 14.553 31.6693 15.5083H20.5542V15.5106Z" fill="white"/>
<path d="M63.9858 12.362C63.1787 10.9985 62.0934 9.91321 60.73 9.10608C59.3779 8.29895 57.8708 7.89538 56.2132 7.89538C54.8954 7.89538 53.7462 8.20775 52.7704 8.83247C51.8037 9.4458 51.0307 10.2529 50.4516 11.2539V2.71973H47.5879V25.4197H50.4516V22.5035C51.0307 23.5044 51.8037 24.3161 52.7704 24.9409C53.7485 25.5542 54.8954 25.862 56.2132 25.862C57.4513 25.862 58.6118 25.6294 59.6903 25.162C60.7824 24.6969 61.7354 24.0539 62.554 23.2354C63.3839 22.4055 64.0314 21.4501 64.4966 20.3717C64.9617 19.2818 65.1965 18.1167 65.1965 16.8764C65.1965 15.2165 64.793 13.7117 63.9858 12.3597V12.362ZM61.4459 19.9978C60.901 20.9303 60.1668 21.6736 59.2479 22.2299C58.3268 22.7862 57.3054 23.0644 56.179 23.0644C55.0527 23.0644 54.111 22.7908 53.2811 22.2459C52.4512 21.6895 51.8105 20.944 51.3545 20.0137C50.9122 19.0698 50.6887 18.0255 50.6887 16.8764C50.6887 15.7273 50.9099 14.699 51.3545 13.7573C51.8082 12.8134 52.4466 12.0633 53.2629 11.5069C54.0928 10.9506 55.0641 10.6725 56.179 10.6725C57.294 10.6725 58.2926 10.9506 59.2137 11.5069C60.1349 12.0519 60.8736 12.7974 61.4299 13.7391C61.9862 14.6716 62.2644 15.7159 62.2644 16.8764C62.2644 18.0369 61.9908 19.0538 61.4459 19.9955V19.9978Z" fill="white"/>
<path d="M71.4516 8.71973H68.5879V25.7675H71.4516V8.71973Z" fill="white"/>
<path d="M71.4516 2.71973H68.5879V5.59484H71.4516V2.71973Z" fill="white"/>
<path d="M100.123 13.8576C99.7487 12.6423 99.1741 11.573 98.4012 10.6518C97.6397 9.73071 96.7186 9.01478 95.6401 8.50405C94.5708 7.98193 93.3966 7.71973 92.1106 7.71973C90.941 7.71973 89.8374 7.95229 88.8046 8.41969C87.7695 8.88482 86.862 9.53235 86.0777 10.3623C85.3048 11.1808 84.696 12.1361 84.2537 13.226C83.8113 14.3044 83.5879 15.4695 83.5879 16.7213C83.5879 18.3697 83.9687 19.8745 84.7302 21.238C85.5031 22.59 86.5314 23.6708 87.8151 24.4779C89.1101 25.285 90.542 25.6886 92.1106 25.6886C93.8161 25.6886 95.3551 25.2121 96.73 24.2567C98.1048 23.29 99.1331 22.052 99.8148 20.5403L96.901 19.8586C96.3902 20.7797 95.7199 21.507 94.89 22.0406C94.06 22.5627 93.1344 22.8249 92.1106 22.8249C91.1553 22.8135 90.2866 22.5855 89.5023 22.1432C88.7293 21.7008 88.0932 21.1035 87.5939 20.3533C87.0946 19.5918 86.7754 18.7277 86.6386 17.7632H100.549C100.652 16.377 100.51 15.0751 100.123 13.8598V13.8576ZM86.5519 15.5106C86.6773 14.5324 86.9942 13.6524 87.5073 12.868C88.0294 12.0723 88.6883 11.4407 89.484 10.9756C90.2798 10.5105 91.1553 10.2756 92.1083 10.2756C93.0614 10.2756 93.9438 10.515 94.7509 10.9916C95.558 11.4681 96.2215 12.1042 96.7459 12.8999C97.268 13.6843 97.5758 14.553 97.667 15.5083H86.5519V15.5106Z" fill="white"/>
<path d="M76.5902 2.71973H79.4539V20.2075C79.4539 21.0169 79.5724 21.6211 79.8118 22.0224C80.0513 22.4237 80.3568 22.6905 80.733 22.8227C81.1092 22.9549 81.5082 23.0233 81.9277 23.0233C82.2424 23.0233 82.5023 23.0051 82.7052 22.9686C82.9081 22.9321 83.07 22.9025 83.1908 22.8774L83.7723 25.4493C83.5784 25.5223 83.3071 25.5975 82.9583 25.6727C82.6094 25.7503 82.1694 25.789 81.6359 25.789C80.8265 25.789 80.0353 25.6157 79.2646 25.2669C78.4917 24.9181 77.8533 24.3891 77.3471 23.6777C76.841 22.9663 76.5879 22.068 76.5879 20.9827V2.71973H76.5902Z" fill="white"/>
<path d="M46.0272 7.84969C45.6213 7.75621 45.2132 7.71973 44.7367 7.71973C43.656 7.71973 42.6573 7.95913 41.7362 8.43565C40.8151 8.90078 40.0535 9.53235 39.4516 10.3281V8.19625H36.5879V25.244H39.4516V15.2712C39.4516 14.407 39.6614 13.6227 40.0832 12.9182C40.5027 12.2137 41.0659 11.6573 41.7704 11.2469C42.4863 10.8274 43.2706 10.6154 44.1234 10.6154C44.7139 10.6154 45.3705 10.7157 46.0272 11.0873V7.84741V7.84969Z" fill="white"/>
<path d="M83.2529 8.71973H73.5879V11.3304H83.2529V8.71973Z" fill="white"/>
</svg>
