<svg width="133" height="59" viewBox="0 0 133 59" fill="none" xmlns="http://www.w3.org/2000/svg">
<path d="M42.9762 30.9723C42.9762 36.5345 46.5828 40.4125 51.5804 40.4125C56.578 40.4125 60.1846 36.5345 60.1846 30.9723C60.1846 25.41 56.578 21.532 51.5804 21.532C46.5828 21.532 42.9762 25.41 42.9762 30.9723ZM56.8869 30.9723C56.8869 34.9527 54.697 37.5293 51.5804 37.5293C48.4638 37.5293 46.2739 34.9527 46.2739 30.9723C46.2739 26.9919 48.4638 24.4152 51.5804 24.4152C54.697 24.4152 56.8869 26.9919 56.8869 30.9723Z" fill="#99989A"/>
<path d="M69.4707 40.4127C73.2578 40.4127 75.4214 37.249 75.4214 33.4473C75.4214 29.6456 73.2572 26.4819 69.4707 26.4819C67.7188 26.4819 66.4312 27.1707 65.5809 28.1656V26.737H62.4894V44.7245H65.5809V38.7284C66.4312 39.7232 67.7188 40.4127 69.4707 40.4127ZM65.5032 33.0644C65.5032 30.5386 66.9456 29.1609 68.8523 29.1609C71.0936 29.1609 72.3042 30.8961 72.3042 33.4473C72.3042 35.9985 71.0936 37.7336 68.8523 37.7336C66.9462 37.7336 65.5032 36.3305 65.5032 33.8556V33.0644Z" fill="#99989A"/>
<path d="M83.7868 40.4127C86.4918 40.4127 88.6297 39.0095 89.5833 36.6619L86.9298 35.6671C86.5175 37.0448 85.3069 37.8106 83.7868 37.8106C81.8031 37.8106 80.4121 36.4074 80.1802 34.1113H89.6604V33.0904C89.6604 29.4166 87.5739 26.4825 83.6584 26.4825C79.7429 26.4825 77.2184 29.519 77.2184 33.4479C77.2184 37.5809 79.9233 40.4133 83.7874 40.4133L83.7868 40.4127ZM83.6321 29.0586C85.5901 29.0586 86.5175 30.3345 86.5432 31.8139H80.335C80.7987 30.0025 82.0343 29.0586 83.6321 29.0586Z" fill="#99989A"/>
<path d="M91.98 40.1316H95.0716V32.2732C95.0716 30.3593 96.4883 29.3391 97.8793 29.3391C99.5792 29.3391 100.249 30.538 100.249 32.1968V40.1316H103.341V31.3038C103.341 28.4206 101.641 26.4819 98.8066 26.4819C97.0547 26.4819 95.8442 27.2731 95.0716 28.1656V26.737H91.98V40.1316Z" fill="#99989A"/>
<path d="M112.394 21.8123L105.387 40.1312H108.659L110.23 35.9467H118.216L119.813 40.1312H123.137L116.129 21.8123H112.394ZM114.198 25.4352L117.135 33.0895H111.312L114.198 25.4352Z" fill="#99989A"/>
<path d="M128.443 21.866H125.146V40.185H128.443V21.866Z" fill="#99989A"/>
<path d="M35.4215 28.5404C36.2007 26.2242 35.9324 23.6866 34.686 21.5792C32.8116 18.3474 29.0443 16.6845 25.3648 17.4674C23.7276 15.6411 21.3763 14.6025 18.9104 14.6173C15.149 14.6091 11.8119 17.007 10.6551 20.5512C8.23878 21.0412 6.15345 22.5391 4.93272 24.6624C3.04458 27.8859 3.47479 31.9486 5.9975 34.7128C5.21834 37.0291 5.48662 39.5667 6.73304 41.6741C8.60744 44.9058 12.3748 46.5688 16.0543 45.7858C17.6903 47.6121 20.0427 48.6507 22.5086 48.6347C26.2718 48.6442 29.6101 46.2439 30.7669 42.6961C33.1832 42.2061 35.2686 40.7083 36.4893 38.5849C38.3751 35.3614 37.9436 31.3017 35.4221 28.5375L35.4209 28.5398L35.4215 28.5404ZM22.511 46.412C21.0053 46.4143 19.5462 45.8924 18.3906 44.9366C18.4431 44.9088 18.5346 44.8591 18.5937 44.823L25.4335 40.9107C25.7836 40.7142 25.9981 40.3449 25.9957 39.9466V30.3969L28.8865 32.0498C28.9176 32.0646 28.9379 32.0941 28.9421 32.1285V40.0366C28.9379 43.553 26.0615 46.4043 22.511 46.412ZM8.68153 40.5621C7.92687 39.2714 7.6556 37.7588 7.91433 36.2905C7.96452 36.3201 8.05414 36.3746 8.11748 36.4107L14.9572 40.323C15.3038 40.5242 15.7334 40.5242 16.0812 40.323L24.4308 35.5478V38.8542C24.4332 38.8879 24.4171 38.9211 24.3902 38.9424L17.4764 42.8961C14.3968 44.6526 10.4639 43.6086 8.68333 40.5627H8.68213L8.68153 40.5621ZM6.88182 25.7756C7.6329 24.4831 8.81896 23.4942 10.2321 22.9805C10.2321 23.0391 10.2291 23.1421 10.2291 23.2143V31.0396C10.2267 31.4373 10.4418 31.8059 10.7908 32.003L19.1404 36.7776L16.2497 38.4305C16.2204 38.4494 16.1839 38.4529 16.1523 38.4387L9.23782 34.482C6.1648 32.7197 5.11078 28.8245 6.88182 25.7756ZM30.6313 31.2491L22.2816 26.4739L25.1724 24.8216C25.2016 24.8027 25.2381 24.7991 25.2698 24.8133L32.1842 28.7671C35.2626 30.5289 36.3178 34.4294 34.539 37.4783C33.7867 38.769 32.6019 39.7573 31.1899 40.2721V32.2131C31.1929 31.8154 30.9796 31.4479 30.6319 31.2497H30.6307L30.6313 31.2491ZM33.5077 26.9609C33.4575 26.9302 33.3679 26.8769 33.3045 26.8408L26.4648 22.9285C26.1182 22.7273 25.6886 22.7273 25.3409 22.9285L16.9912 27.7036V24.3973C16.9888 24.3636 17.0049 24.3304 17.0318 24.3091L23.9457 20.3589C27.0253 18.5995 30.9623 19.6464 32.7375 22.6977C33.488 23.986 33.7593 25.4945 33.5047 26.9609H33.5077ZM15.4203 32.8534L12.5289 31.2005C12.4979 31.1857 12.4775 31.1562 12.4734 31.1218V23.2137C12.4758 19.6926 15.36 16.8395 18.9146 16.8413C20.4185 16.8413 21.8741 17.3644 23.0297 18.3166C22.9771 18.3444 22.8869 18.3942 22.8265 18.4303L15.9868 22.3426C15.6366 22.5391 15.4221 22.9072 15.4245 23.306L15.4203 32.8534ZM16.9906 29.5003L20.7101 27.3728L24.4296 29.4991V33.7523L20.7101 35.8787L16.9906 33.7523V29.5003Z" fill="#99989A"/>
</svg>
