<svg width="30" height="25" viewBox="0 0 30 25" fill="none" xmlns="http://www.w3.org/2000/svg">
<path d="M5.97539 6.86553H11.9508V12.8409H5.97539V6.86553ZM5.97539 0.890137C9.27551 0.890137 11.9508 3.56541 11.9508 6.86553H5.97539V0.890137ZM0 6.86553C0 3.56541 2.67527 0.890137 5.97539 0.890137V6.86553H0ZM5.97539 12.8409H11.9508C11.9508 16.141 9.27551 18.8163 5.97539 18.8163V12.8409ZM0 21.804C0 20.1539 1.33764 18.8163 2.98769 18.8163H5.97539V21.804C5.97539 23.4541 4.63775 24.7917 2.9877 24.7917C1.33764 24.7917 0 23.4541 0 21.804ZM0 6.86553H5.97539V12.8409C2.67527 12.8409 0 10.1656 0 6.86553ZM23.9016 6.86553H29.877V12.8409H23.9016V6.86553ZM23.9016 0.890137C27.2017 0.890137 29.877 3.56541 29.877 6.86553H23.9016V0.890137ZM17.9262 6.86553C17.9262 3.56541 20.6014 0.890137 23.9016 0.890137V6.86553H17.9262ZM23.9016 12.8409H29.877C29.877 16.141 27.2017 18.8163 23.9016 18.8163V12.8409ZM17.9262 21.804C17.9262 20.1539 19.2638 18.8163 20.9139 18.8163H23.9016V21.804C23.9016 23.4541 22.5639 24.7917 20.9139 24.7917C19.2638 24.7917 17.9262 23.4541 17.9262 21.804ZM17.9262 6.86553H23.9016V12.8409C20.6014 12.8409 17.9262 10.1656 17.9262 6.86553Z" fill="#7D5AC3"/>
</svg>
