<svg width="1224" height="282" viewBox="0 0 1224 282" fill="none" xmlns="http://www.w3.org/2000/svg">
<g opacity="0.6">
<path d="M99.1513 240.038L38.0812 73.0478H0.78125L76.8512 280.388H121.641L197.511 73.0478H160.221L99.1513 240.038Z" fill="url(#paint0_linear_1909_24678)"/>
<path d="M410.751 135.408C406.181 120.658 399.151 107.678 389.701 96.4978C380.391 85.3178 369.131 76.6278 355.951 70.4278C342.881 64.0878 328.521 60.9078 312.801 60.9078C298.501 60.9078 285.011 63.7278 272.381 69.4078C259.731 75.0578 248.631 82.9178 239.041 92.9878C229.591 102.928 222.151 114.518 216.741 127.748C211.331 140.838 208.601 154.978 208.601 170.178C208.601 190.188 213.251 208.448 222.561 224.998C232.011 241.408 244.581 254.528 260.271 264.328C276.101 274.128 293.611 279.028 312.781 279.028C333.631 279.028 352.451 273.248 369.251 261.648C386.061 249.918 398.631 234.888 406.961 216.538L371.341 208.258C365.101 219.438 356.901 228.268 346.761 234.748C336.611 241.088 325.301 244.268 312.781 244.268C301.101 244.128 290.481 241.358 280.891 235.988C271.441 230.618 263.661 223.368 257.561 214.268C251.461 205.028 247.551 194.538 245.881 182.828H415.941C417.191 165.998 415.471 150.198 410.731 135.448V135.418L410.751 135.408ZM244.881 155.448C246.421 143.588 250.291 132.918 256.551 123.398C262.931 113.738 270.991 106.078 280.721 100.428C290.451 94.7778 301.151 91.9278 312.801 91.9278C324.451 91.9278 335.241 94.8378 345.111 100.618C354.981 106.398 363.091 114.128 369.501 123.778C375.881 133.298 379.651 143.838 380.761 155.438H244.881V155.448Z" fill="url(#paint1_linear_1909_24678)"/>
<path d="M775.831 117.258C765.961 100.708 752.691 87.5378 736.031 77.7378C719.501 67.9378 701.081 63.0378 680.811 63.0378C664.701 63.0378 650.651 66.8278 638.721 74.4078C626.901 81.8478 617.451 91.6478 610.371 103.798V0.217773H575.361V275.748H610.371V240.348C617.451 252.498 626.901 262.348 638.721 269.928C650.681 277.368 664.701 281.108 680.811 281.108C695.941 281.108 710.131 278.288 723.321 272.608C736.671 266.958 748.321 259.158 758.331 249.218C768.481 239.148 776.391 227.548 782.081 214.458C787.771 201.228 790.641 187.088 790.641 172.028C790.641 151.878 785.711 133.618 775.841 117.208V117.238L775.831 117.258ZM744.781 209.908V209.938C738.121 221.258 729.141 230.278 717.911 237.028C706.651 243.778 694.161 247.158 680.391 247.158C666.621 247.158 655.111 243.838 644.961 237.218C634.811 230.468 626.981 221.418 621.411 210.128C616.001 198.668 613.271 185.998 613.271 172.048C613.271 158.098 615.971 145.618 621.411 134.188C626.961 122.728 634.761 113.628 644.741 106.868C654.891 100.118 666.761 96.7378 680.391 96.7378C694.021 96.7378 706.231 100.118 717.491 106.868C728.751 113.478 737.781 122.528 744.581 133.958C751.381 145.278 754.781 157.948 754.781 172.038C754.781 186.128 751.431 198.468 744.771 209.898L744.781 209.908Z" fill="url(#paint2_linear_1909_24678)"/>
<path d="M867.111 73.0478H832.101V279.968H867.111V73.0478Z" fill="url(#paint3_linear_1909_24678)"/>
<path d="M867.111 0.217773H832.101V35.1178H867.111V0.217773Z" fill="url(#paint4_linear_1909_24678)"/>
<path d="M1217.61 135.438V135.408C1213.04 120.658 1206.01 107.678 1196.57 96.4978C1187.26 85.3178 1175.99 76.6278 1162.81 70.4278C1149.74 64.0878 1135.38 60.9078 1119.66 60.9078C1105.36 60.9078 1091.87 63.7278 1079.24 69.4078C1066.59 75.0578 1055.5 82.9178 1045.91 92.9878C1036.46 102.928 1029.02 114.518 1023.61 127.748C1018.2 140.838 1015.47 154.978 1015.47 170.178C1015.47 190.188 1020.12 208.448 1029.43 224.998C1038.88 241.408 1051.45 254.528 1067.15 264.328C1082.98 274.128 1100.48 279.018 1119.66 279.018C1140.51 279.018 1159.33 273.238 1176.13 261.638C1192.94 249.908 1205.51 234.878 1213.85 216.528L1178.22 208.248C1171.98 219.428 1163.79 228.258 1153.64 234.738C1143.49 241.078 1132.18 244.258 1119.66 244.258C1107.98 244.118 1097.36 241.348 1087.77 235.978C1078.32 230.608 1070.55 223.358 1064.44 214.258C1058.34 205.018 1054.44 194.528 1052.76 182.818H1222.82C1224.08 165.988 1222.35 150.188 1217.61 135.438ZM1051.72 155.448C1053.25 143.588 1057.12 132.908 1063.39 123.398C1069.78 113.738 1077.83 106.078 1087.56 100.428C1097.29 94.7778 1107.99 91.9278 1119.64 91.9278C1131.29 91.9278 1142.08 94.8378 1151.95 100.618C1161.82 106.398 1169.93 114.128 1176.34 123.778C1182.72 133.298 1186.49 143.838 1187.6 155.438H1051.72V155.448Z" fill="url(#paint5_linear_1909_24678)"/>
<path d="M503.831 69.5978C492.571 75.2478 483.261 82.9078 475.901 92.5678V66.6878H440.891V273.608H475.901V152.558C475.901 142.068 478.461 132.548 483.621 123.998C488.751 115.448 495.631 108.698 504.251 103.708C513.001 98.6178 522.591 96.0378 533.021 96.0378C540.241 96.0378 548.271 97.2578 556.291 101.768V62.4678C551.331 61.3378 546.341 60.8878 540.511 60.8878C527.301 60.8878 515.091 63.7978 503.831 69.5778V69.5978Z" fill="url(#paint6_linear_1909_24678)"/>
<path d="M1004.68 245.998C1002.2 246.438 999.021 246.658 995.171 246.658C990.041 246.658 985.161 245.828 980.571 244.218C975.971 242.618 972.241 239.378 969.311 234.508C966.381 229.638 964.931 222.308 964.931 212.478V104.728H1011.38V73.0378H964.931V0.217773H929.891V73.0478H893.211V104.738H929.891V221.898C929.891 235.068 932.981 245.978 939.171 254.608C945.361 263.238 953.161 269.668 962.611 273.898C972.031 278.138 981.701 280.238 991.601 280.238C998.121 280.238 1003.5 279.768 1007.76 278.828C1012.03 277.918 1015.34 276.998 1017.71 276.118L1010.61 244.898C1009.13 245.198 1007.15 245.558 1004.67 246.008L1004.68 245.998Z" fill="url(#paint7_linear_1909_24678)"/>
</g>
<defs>
<linearGradient id="paint0_linear_1909_24678" x1="675.546" y1="264.11" x2="675.546" y2="-9.3239" gradientUnits="userSpaceOnUse">
<stop stop-color="#29272B" stop-opacity="0"/>
<stop offset="1" stop-color="#5A595B"/>
</linearGradient>
<linearGradient id="paint1_linear_1909_24678" x1="675.546" y1="264.11" x2="675.546" y2="-9.3239" gradientUnits="userSpaceOnUse">
<stop stop-color="#29272B" stop-opacity="0"/>
<stop offset="1" stop-color="#5A595B"/>
</linearGradient>
<linearGradient id="paint2_linear_1909_24678" x1="675.546" y1="264.11" x2="675.546" y2="-9.3239" gradientUnits="userSpaceOnUse">
<stop stop-color="#29272B" stop-opacity="0"/>
<stop offset="1" stop-color="#5A595B"/>
</linearGradient>
<linearGradient id="paint3_linear_1909_24678" x1="675.546" y1="264.11" x2="675.546" y2="-9.3239" gradientUnits="userSpaceOnUse">
<stop stop-color="#29272B" stop-opacity="0"/>
<stop offset="1" stop-color="#5A595B"/>
</linearGradient>
<linearGradient id="paint4_linear_1909_24678" x1="675.546" y1="264.11" x2="675.546" y2="-9.3239" gradientUnits="userSpaceOnUse">
<stop stop-color="#29272B" stop-opacity="0"/>
<stop offset="1" stop-color="#5A595B"/>
</linearGradient>
<linearGradient id="paint5_linear_1909_24678" x1="675.546" y1="264.11" x2="675.546" y2="-9.3239" gradientUnits="userSpaceOnUse">
<stop stop-color="#29272B" stop-opacity="0"/>
<stop offset="1" stop-color="#5A595B"/>
</linearGradient>
<linearGradient id="paint6_linear_1909_24678" x1="675.546" y1="264.11" x2="675.546" y2="-9.3239" gradientUnits="userSpaceOnUse">
<stop stop-color="#29272B" stop-opacity="0"/>
<stop offset="1" stop-color="#5A595B"/>
</linearGradient>
<linearGradient id="paint7_linear_1909_24678" x1="675.546" y1="264.11" x2="675.546" y2="-9.3239" gradientUnits="userSpaceOnUse">
<stop stop-color="#29272B" stop-opacity="0"/>
<stop offset="1" stop-color="#5A595B"/>
</linearGradient>
</defs>
</svg>
