<svg width="144" height="145" viewBox="0 0 144 145" fill="none" xmlns="http://www.w3.org/2000/svg">
<mask id="mask0_1724_15583" style="mask-type:alpha" maskUnits="userSpaceOnUse" x="0" y="0" width="144" height="145">
<rect y="0.440186" width="144" height="144" fill="#7CDEC4"/>
</mask>
<g mask="url(#mask0_1724_15583)">
<path d="M30.9007 126.44C28.9007 126.44 27.0757 125.84 25.4257 124.64C23.7757 123.44 22.7007 121.84 22.2007 119.84L5.70073 60.1402C5.30073 58.7402 5.54223 57.4402 6.42523 56.2402C7.30723 55.0402 8.51573 54.4402 10.0507 54.4402H40.3507L68.1007 13.9402C68.6007 13.3402 69.1507 12.8652 69.7507 12.5152C70.3507 12.1652 71.0507 11.9902 71.8507 11.9902C72.6507 11.9902 73.3507 12.1652 73.9507 12.5152C74.5507 12.8652 75.1007 13.3402 75.6007 13.9402L103.201 54.4402H134.101C135.636 54.4402 136.844 55.0402 137.726 56.2402C138.609 57.4402 138.851 58.7402 138.451 60.1402L121.801 119.84C121.301 121.84 120.226 123.44 118.576 124.64C116.926 125.84 115.101 126.44 113.101 126.44H30.9007ZM30.9007 117.44H113.101L128.251 63.4402H15.9007L30.9007 117.44ZM51.3007 54.4402H92.2507L71.8507 24.4402L51.3007 54.4402Z" fill="#7CDEC4"/>
<path d="M78.375 96.7882C76.625 98.5562 74.509 99.4402 72.027 99.4402C69.544 99.4402 67.419 98.5652 65.652 96.8152C63.884 95.0652 63 92.9492 63 90.4672C63 87.9842 63.875 85.8592 65.625 84.0922C67.375 82.3242 69.491 81.4402 71.973 81.4402C74.456 81.4402 76.581 82.3152 78.348 84.0652C80.116 85.8152 81 87.9312 81 90.4132C81 92.8962 80.125 95.0212 78.375 96.7882Z" fill="#3D3C3E"/>
</g>
</svg>
