<svg width="144" height="145" viewBox="0 0 144 145" fill="none" xmlns="http://www.w3.org/2000/svg">
<mask id="mask0_1724_15589" style="mask-type:alpha" maskUnits="userSpaceOnUse" x="0" y="0" width="144" height="145">
<rect y="0.940186" width="144" height="144" fill="#D9D9D9"/>
</mask>
<g mask="url(#mask0_1724_15589)">
<path d="M64.9462 80.0381C66.9432 82.0061 69.3442 82.9901 72.1492 82.9901C74.8722 82.9901 77.2027 82.0061 79.1407 80.0381C81.0797 78.0701 82.0492 75.7041 82.0492 72.9401C82.0492 70.1761 81.0797 67.8101 79.1407 65.8421C77.2027 63.8741 74.8722 62.8901 72.1492 62.8901C69.3442 62.8901 66.9432 63.8741 64.9462 65.8421C62.9482 67.8101 61.9492 70.1761 61.9492 72.9401C61.9492 75.7041 62.9482 78.0701 64.9462 80.0381Z" fill="#3D3C3E"/>
<path d="M18 126.94V92.4402H27V111.49L49.2 89.2902L55.65 95.7402L33.45 117.94H52.5V126.94H18ZM91.5 126.94V117.94H110.55L88.5 95.8902L94.95 89.4402L117 111.49V92.4402H126V126.94H91.5ZM49.05 56.4402L27 34.3902V53.4402H18V18.9402H52.5V27.9402H33.45L55.5 49.9902L49.05 56.4402ZM94.95 56.4402L88.5 49.9902L110.55 27.9402H91.5V18.9402H126V53.4402H117V34.3902L94.95 56.4402Z" fill="#7CDEC4"/>
</g>
</svg>
