<svg width="146" height="146" viewBox="0 0 146 146" fill="none" xmlns="http://www.w3.org/2000/svg">
<path d="M68.209 0.264893H76.209V145.615H68.209V0.264893Z" fill="#3D3C3E"/>
<path d="M105.216 7.50146L112.145 11.5015L39.4693 137.379L32.5411 133.379L105.216 7.50146Z" fill="#3D3C3E"/>
<path d="M145.885 67.9399L145.885 75.9399L0.534356 75.9399L0.534356 67.9399L145.885 67.9399Z" fill="#3D3C3E"/>
<path d="M138.648 104.948L134.648 111.876L8.77129 39.2005L12.7713 32.2723L138.648 104.948Z" fill="#3D3C3E"/>
<path d="M113.877 133.379L106.949 137.379L34.274 11.5015L41.2022 7.50152L113.877 133.379Z" fill="#3D3C3E"/>
<path d="M133.648 32.2725L137.648 39.2007L11.7713 111.876L7.77129 104.948L133.648 32.2725Z" fill="#7CDEC4"/>
<path d="M108.554 31.482L110.625 23.7546L142.414 32.2724L140.343 39.9998L108.554 31.482Z" fill="#7CDEC4"/>
<path d="M133.895 64.061L126.168 61.9905L134.686 30.2019L142.413 32.2725L133.895 64.061Z" fill="#7CDEC4"/>
</svg>
