<svg width="145" height="145" viewBox="0 0 145 145" fill="none" xmlns="http://www.w3.org/2000/svg">
<mask id="mask0_1721_14865" style="mask-type:alpha" maskUnits="userSpaceOnUse" x="0" y="0" width="145" height="145">
<rect x="0.666016" y="0.940186" width="144" height="144" fill="#D9D9D9"/>
</mask>
<g mask="url(#mask0_1721_14865)">
<path d="M43.416 102.19V43.6902H101.916V102.19H43.416ZM52.416 93.1902H92.916V52.6902H52.416V93.1902ZM43.416 126.94V117.94H52.416V126.94H43.416ZM43.416 27.9402V18.9402H52.416V27.9402H43.416ZM68.166 126.94V117.94H77.166V126.94H68.166ZM68.166 27.9402V18.9402H77.166V27.9402H68.166ZM92.916 27.9402V18.9402H101.916V27.9402H92.916ZM92.916 126.94V117.94H101.916V126.94H92.916ZM18.666 102.19V93.1902H27.666V102.19H18.666ZM18.666 77.4402V68.4402H27.666V77.4402H18.666ZM18.666 52.6902V43.6902H27.666V52.6902H18.666ZM117.666 102.19V93.1902H126.666V102.19H117.666ZM117.666 77.4402V68.4402H126.666V77.4402H117.666ZM117.666 52.6902V43.6902H126.666V52.6902H117.666Z" fill="#7CDEC4"/>
<path d="M18.666 18.9402V27.9402H27.666V18.9402H18.666Z" fill="#3D3C3E"/>
<path d="M117.666 18.9402V27.9402H126.666V18.9402H117.666Z" fill="#3D3C3E"/>
<path d="M18.666 117.94V126.94H27.666V117.94H18.666Z" fill="#3D3C3E"/>
<path d="M117.666 117.94V126.94H126.666V117.94H117.666Z" fill="#3D3C3E"/>
</g>
</svg>
